<svg width="344" height="176" viewBox="0 0 344 176" fill="none" xmlns="http://www.w3.org/2000/svg">
<path d="M33.4006 60.0909C33.1733 56.9091 31.9536 54.2955 29.7415 52.25C27.5445 50.2045 24.643 49.1818 21.0369 49.1818C18.6733 49.1818 16.5597 49.6364 14.696 50.5455C12.8324 51.4545 11.3627 52.7045 10.2869 54.2955C9.21117 55.8712 8.6733 57.6818 8.6733 59.7273C8.6733 60.9091 8.87027 62 9.2642 63C9.65814 64 10.2566 64.9167 11.0597 65.75C11.8778 66.5682 12.9006 67.3106 14.1278 67.9773C15.3703 68.6288 16.8248 69.2121 18.4915 69.7273L23.7642 71.3636C25.7794 71.9848 27.5218 72.6818 28.9915 73.4545C30.4612 74.2273 31.6733 75.0985 32.6278 76.0682C33.5975 77.0227 34.3172 78.0909 34.7869 79.2727C35.2566 80.4394 35.4915 81.7424 35.4915 83.1818C35.4915 85.6061 34.8703 87.7652 33.6278 89.6591C32.3854 91.553 30.6506 93.0379 28.4233 94.1136C26.196 95.1894 23.6127 95.7273 20.6733 95.7273C17.84 95.7273 15.3627 95.2348 13.2415 94.25C11.1203 93.25 9.43845 91.8788 8.19602 90.1364C6.96875 88.3788 6.27936 86.3636 6.12784 84.0909H7.58239C7.7339 86.0909 8.36269 87.8561 9.46875 89.3864C10.5748 90.9167 12.0748 92.1136 13.9688 92.9773C15.8778 93.8409 18.1127 94.2727 20.6733 94.2727C23.34 94.2727 25.6733 93.8106 27.6733 92.8864C29.6884 91.947 31.2491 90.6439 32.3551 88.9773C33.4763 87.3106 34.0369 85.3788 34.0369 83.1818C34.0369 81.5152 33.6733 80.053 32.946 78.7955C32.2188 77.5227 31.0748 76.4015 29.5142 75.4318C27.9536 74.4621 25.9157 73.5909 23.4006 72.8182L18.1278 71.1818C14.4763 70.0303 11.7415 68.5076 9.9233 66.6136C8.12027 64.7197 7.21875 62.4242 7.21875 59.7273C7.21875 57.4394 7.81723 55.3939 9.0142 53.5909C10.2112 51.7727 11.8475 50.3409 13.9233 49.2955C16.0142 48.25 18.3854 47.7273 21.0369 47.7273C23.7036 47.7273 26.0445 48.2576 28.0597 49.3182C30.0748 50.3788 31.6733 51.8409 32.8551 53.7045C34.0369 55.5682 34.7036 57.697 34.8551 60.0909H33.4006ZM72.5881 60.0909C72.3608 56.9091 71.1411 54.2955 68.929 52.25C66.732 50.2045 63.8305 49.1818 60.2244 49.1818C57.8608 49.1818 55.7472 49.6364 53.8835 50.5455C52.0199 51.4545 50.5502 52.7045 49.4744 54.2955C48.3987 55.8712 47.8608 57.6818 47.8608 59.7273C47.8608 60.9091 48.0578 62 48.4517 63C48.8456 64 49.4441 64.9167 50.2472 65.75C51.0653 66.5682 52.0881 67.3106 53.3153 67.9773C54.5578 68.6288 56.0123 69.2121 57.679 69.7273L62.9517 71.3636C64.9669 71.9848 66.7093 72.6818 68.179 73.4545C69.6487 74.2273 70.8608 75.0985 71.8153 76.0682C72.785 77.0227 73.5047 78.0909 73.9744 79.2727C74.4441 80.4394 74.679 81.7424 74.679 83.1818C74.679 85.6061 74.0578 87.7652 72.8153 89.6591C71.5729 91.553 69.8381 93.0379 67.6108 94.1136C65.3835 95.1894 62.8002 95.7273 59.8608 95.7273C57.0275 95.7273 54.5502 95.2348 52.429 94.25C50.3078 93.25 48.6259 91.8788 47.3835 90.1364C46.1563 88.3788 45.4669 86.3636 45.3153 84.0909H46.7699C46.9214 86.0909 47.5502 87.8561 48.6562 89.3864C49.7623 90.9167 51.2623 92.1136 53.1562 92.9773C55.0653 93.8409 57.3002 94.2727 59.8608 94.2727C62.5275 94.2727 64.8608 93.8106 66.8608 92.8864C68.8759 91.947 70.4366 90.6439 71.5426 88.9773C72.6638 87.3106 73.2244 85.3788 73.2244 83.1818C73.2244 81.5152 72.8608 80.053 72.1335 78.7955C71.4063 77.5227 70.2623 76.4015 68.7017 75.4318C67.1411 74.4621 65.1032 73.5909 62.5881 72.8182L57.3153 71.1818C53.6638 70.0303 50.929 68.5076 49.1108 66.6136C47.3078 64.7197 46.4062 62.4242 46.4062 59.7273C46.4062 57.4394 47.0047 55.3939 48.2017 53.5909C49.3987 51.7727 51.035 50.3409 53.1108 49.2955C55.2017 48.25 57.5729 47.7273 60.2244 47.7273C62.8911 47.7273 65.232 48.2576 67.2472 49.3182C69.2623 50.3788 70.8608 51.8409 72.0426 53.7045C73.2244 55.5682 73.8911 57.697 74.0426 60.0909H72.5881ZM111.776 60.0909C111.548 56.9091 110.329 54.2955 108.116 52.25C105.92 50.2045 103.018 49.1818 99.4119 49.1818C97.0483 49.1818 94.9347 49.6364 93.071 50.5455C91.2074 51.4545 89.7377 52.7045 88.6619 54.2955C87.5862 55.8712 87.0483 57.6818 87.0483 59.7273C87.0483 60.9091 87.2453 62 87.6392 63C88.0331 64 88.6316 64.9167 89.4347 65.75C90.2528 66.5682 91.2756 67.3106 92.5028 67.9773C93.7453 68.6288 95.1998 69.2121 96.8665 69.7273L102.139 71.3636C104.154 71.9848 105.897 72.6818 107.366 73.4545C108.836 74.2273 110.048 75.0985 111.003 76.0682C111.973 77.0227 112.692 78.0909 113.162 79.2727C113.632 80.4394 113.866 81.7424 113.866 83.1818C113.866 85.6061 113.245 87.7652 112.003 89.6591C110.76 91.553 109.026 93.0379 106.798 94.1136C104.571 95.1894 101.988 95.7273 99.0483 95.7273C96.215 95.7273 93.7377 95.2348 91.6165 94.25C89.4953 93.25 87.8134 91.8788 86.571 90.1364C85.3438 88.3788 84.6544 86.3636 84.5028 84.0909H85.9574C86.1089 86.0909 86.7377 87.8561 87.8438 89.3864C88.9498 90.9167 90.4498 92.1136 92.3438 92.9773C94.2528 93.8409 96.4877 94.2727 99.0483 94.2727C101.715 94.2727 104.048 93.8106 106.048 92.8864C108.063 91.947 109.624 90.6439 110.73 88.9773C111.851 87.3106 112.412 85.3788 112.412 83.1818C112.412 81.5152 112.048 80.053 111.321 78.7955C110.594 77.5227 109.45 76.4015 107.889 75.4318C106.329 74.4621 104.291 73.5909 101.776 72.8182L96.5028 71.1818C92.8513 70.0303 90.1165 68.5076 88.2983 66.6136C86.4953 64.7197 85.5938 62.4242 85.5938 59.7273C85.5938 57.4394 86.1922 55.3939 87.3892 53.5909C88.5862 51.7727 90.2225 50.3409 92.2983 49.2955C94.3892 48.25 96.7604 47.7273 99.4119 47.7273C102.079 47.7273 104.42 48.2576 106.435 49.3182C108.45 50.3788 110.048 51.8409 111.23 53.7045C112.412 55.5682 113.079 57.697 113.23 60.0909H111.776Z" fill="black"/>
<path d="M292.96 123C292.688 121.409 292.127 119.811 291.278 118.205C290.445 116.583 289.331 115.098 287.938 113.75C286.559 112.402 284.922 111.318 283.028 110.5C281.134 109.682 278.991 109.273 276.597 109.273C273.036 109.273 269.915 110.212 267.233 112.091C264.566 113.955 262.491 116.576 261.006 119.955C259.521 123.318 258.778 127.242 258.778 131.727C258.778 136.152 259.513 140.053 260.983 143.432C262.453 146.811 264.536 149.447 267.233 151.341C269.93 153.235 273.112 154.182 276.778 154.182C280.021 154.182 282.9 153.417 285.415 151.886C287.93 150.341 289.892 148.129 291.301 145.25C292.71 142.356 293.384 138.879 293.324 134.818L293.96 135.364H277.233V133.909H294.778V135.364C294.778 139.606 294.006 143.242 292.46 146.273C290.915 149.288 288.786 151.606 286.074 153.227C283.362 154.833 280.263 155.636 276.778 155.636C272.839 155.636 269.407 154.636 266.483 152.636C263.574 150.621 261.316 147.818 259.71 144.227C258.119 140.636 257.324 136.47 257.324 131.727C257.324 128.152 257.778 124.902 258.688 121.977C259.612 119.038 260.922 116.515 262.619 114.409C264.331 112.288 266.369 110.659 268.733 109.523C271.097 108.386 273.718 107.818 276.597 107.818C279.324 107.818 281.733 108.288 283.824 109.227C285.915 110.167 287.695 111.402 289.165 112.932C290.65 114.447 291.824 116.091 292.688 117.864C293.566 119.621 294.142 121.333 294.415 123H292.96ZM307.21 155V108.455H320.847C323.453 108.455 325.756 109.008 327.756 110.114C329.771 111.22 331.347 112.765 332.483 114.75C333.634 116.735 334.21 119.061 334.21 121.727C334.21 124.364 333.634 126.674 332.483 128.659C331.347 130.629 329.771 132.167 327.756 133.273C325.756 134.364 323.453 134.909 320.847 134.909H307.938V133.455H320.847C323.18 133.455 325.241 132.97 327.028 132C328.816 131.03 330.218 129.667 331.233 127.909C332.248 126.152 332.756 124.091 332.756 121.727C332.756 119.348 332.248 117.273 331.233 115.5C330.218 113.727 328.816 112.356 327.028 111.386C325.241 110.402 323.18 109.909 320.847 109.909H308.665V155H307.21ZM324.938 133.818L336.392 155H334.756L323.301 133.818H324.938Z" fill="black"/>
<path d="M186 102C159.333 51.6667 111 -18.8 131 102M186 102C166 -46 217.667 40.3333 246 102M186 102C194.667 156.667 195.8 233.2 131 102M186 102C215.333 157.333 268.4 234.8 246 102M131 102C151 222.8 106 152.333 81 102H246M246 102C234.333 26 229.4 -80.4 303 102H246Z" stroke="black"/>
</svg>
